<svg width="0" height="0" style="position:absolute"><symbol viewBox="0 0 24 24" id="icon-check" xmlns="http://www.w3.org/2000/svg"><title>check</title><path d="M20.706 5.294a1.005 1.005 0 0 0-1.413 0L8.999 15.588l-4.294-4.294c-.387-.387-1.025-.387-1.413 0s-.387 1.025 0 1.413l5 5a.999.999 0 0 0 1.412 0l11-11a.992.992 0 0 0 0-1.413z"/></symbol><symbol viewBox="0 0 24 24" id="icon-chevron-down" xmlns="http://www.w3.org/2000/svg"><title>chevron-down</title><path d="M18.706 8.294a1.005 1.005 0 0 0-1.413 0l-5.294 5.294-5.294-5.294c-.387-.387-1.025-.387-1.413 0s-.387 1.025 0 1.413l6 6a.999.999 0 0 0 1.412 0l6-6a.992.992 0 0 0 0-1.413z"/></symbol><symbol viewBox="0 0 24 24" id="icon-chevron-left" xmlns="http://www.w3.org/2000/svg"><title>chevron-left</title><path d="M10.413 12l5.294-5.294c.387-.387.387-1.025 0-1.413s-1.025-.387-1.413 0l-6 6a1.005 1.005 0 0 0 0 1.413l6 6a.999.999 0 0 0 1.412 0 1.005 1.005 0 0 0 0-1.413l-5.294-5.294z"/></symbol><symbol viewBox="0 0 24 24" id="icon-chevron-right" xmlns="http://www.w3.org/2000/svg"><title>chevron-right</title><path d="M15.706 11.294l-6-6c-.387-.387-1.025-.387-1.413 0s-.387 1.025 0 1.413l5.294 5.294-5.294 5.294a1.005 1.005 0 0 0 0 1.413.999.999 0 0 0 1.412 0l6-6a.992.992 0 0 0 0-1.413z"/></symbol><symbol viewBox="0 0 24 24" id="icon-chevron-up" xmlns="http://www.w3.org/2000/svg"><title>chevron-up</title><path d="M18.706 14.294l-6-6a1.005 1.005 0 0 0-1.413 0l-6 6c-.387.387-.387 1.025 0 1.413s1.025.387 1.413 0L12 10.413l5.294 5.294a.999.999 0 1 0 1.412-1.413z"/></symbol><symbol viewBox="0 0 24 24" id="icon-x" xmlns="http://www.w3.org/2000/svg"><title>x</title><path d="M13.413 12l5.294-5.294c.387-.387.387-1.025 0-1.413s-1.025-.387-1.413 0L12 10.587 6.706 5.293c-.387-.387-1.025-.387-1.413 0s-.387 1.025 0 1.413L10.587 12l-5.294 5.294a1.005 1.005 0 0 0 0 1.413.999.999 0 0 0 1.412 0l5.294-5.294 5.294 5.294a.999.999 0 0 0 1.412 0 1.005 1.005 0 0 0 0-1.413L13.411 12z"/></symbol><symbol viewBox="0 0 24 24" id="icon-zap" xmlns="http://www.w3.org/2000/svg"><title>zap</title><path d="M21.906 9.575A1 1 0 0 0 21 9h-7.869l.862-6.875a1.01 1.01 0 0 0-.594-1.044 1.012 1.012 0 0 0-1.169.275l-10 12c-.25.3-.3.713-.138 1.062s.519.581.906.581h7.869l-.862 6.875a1.01 1.01 0 0 0 .594 1.044.997.997 0 0 0 .4.081.992.992 0 0 0 .769-.363l10-12c.25-.294.3-.712.138-1.062zm-9.493 9.163l.575-4.613c.037-.288-.05-.569-.244-.788s-.462-.337-.75-.337H5.138l6.45-7.737-.575 4.613a1.003 1.003 0 0 0 .994 1.125h6.862l-6.456 7.737z"/></symbol></svg>