<svg aria-hidden="true" style="position: absolute; width: 0; height: 0; overflow: hidden;" version="1.1" xmlns="http://www.w3.org/2000/svg" xmlns:xlink="http://www.w3.org/1999/xlink">
<defs>
<symbol id="icon-check" viewBox="0 0 32 32">
<title>check</title>
<path d="M27.608 7.059c-0.516-0.516-1.367-0.516-1.884 0l-13.725 13.725-5.725-5.725c-0.516-0.516-1.367-0.516-1.884 0s-0.516 1.367 0 1.884l6.667 6.667c0.259 0.259 0.6 0.392 0.941 0.392s0.684-0.133 0.941-0.392l14.667-14.667c0.525-0.516 0.525-1.367 0-1.884z"></path>
</symbol>
<symbol id="icon-zap" viewBox="0 0 32 32">
<title>zap</title>
<path d="M29.208 12.767c-0.216-0.467-0.692-0.767-1.208-0.767h-10.492l1.149-9.167c0.075-0.584-0.251-1.149-0.792-1.392-0.541-0.233-1.175-0.084-1.559 0.367l-13.333 16c-0.333 0.4-0.4 0.951-0.184 1.416s0.692 0.775 1.208 0.775h10.492l-1.149 9.167c-0.075 0.584 0.251 1.149 0.792 1.392 0.175 0.075 0.349 0.108 0.533 0.108 0.384 0 0.767-0.167 1.025-0.484l13.333-16c0.333-0.392 0.4-0.949 0.184-1.416zM16.551 24.984l0.767-6.151c0.049-0.384-0.067-0.759-0.325-1.051s-0.616-0.449-1-0.449h-9.141l8.6-10.316-0.767 6.151c-0.051 0.384 0.067 0.759 0.325 1.049 0.251 0.284 0.616 0.451 1 0.451h9.149l-8.608 10.316z"></path>
</symbol>
<symbol id="icon-x" viewBox="0 0 32 32">
<title>x</title>
<path d="M17.884 16l7.059-7.059c0.516-0.516 0.516-1.367 0-1.884s-1.367-0.516-1.884 0l-7.059 7.059-7.059-7.059c-0.516-0.516-1.367-0.516-1.884 0s-0.516 1.367 0 1.884l7.059 7.059-7.059 7.059c-0.516 0.516-0.516 1.367 0 1.884 0.259 0.259 0.6 0.392 0.941 0.392s0.684-0.133 0.941-0.392l7.059-7.059 7.059 7.059c0.259 0.259 0.6 0.392 0.941 0.392s0.684-0.133 0.941-0.392c0.516-0.516 0.516-1.367 0-1.884l-7.059-7.059z"></path>
</symbol>
<symbol id="icon-chevron-up" viewBox="0 0 32 32">
<title>chevron-up</title>
<path d="M24.941 19.059l-8-8c-0.516-0.516-1.367-0.516-1.884 0l-8 8c-0.516 0.516-0.516 1.367 0 1.884s1.367 0.516 1.884 0l7.059-7.059 7.059 7.059c0.259 0.259 0.6 0.392 0.941 0.392s0.684-0.133 0.941-0.392c0.525-0.516 0.525-1.367 0-1.884z"></path>
</symbol>
<symbol id="icon-chevron-right" viewBox="0 0 32 32">
<title>chevron-right</title>
<path d="M20.941 15.059l-8-8c-0.516-0.516-1.367-0.516-1.884 0s-0.516 1.367 0 1.884l7.059 7.059-7.059 7.059c-0.516 0.516-0.516 1.367 0 1.884 0.259 0.259 0.6 0.392 0.941 0.392s0.684-0.133 0.941-0.392l8-8c0.525-0.516 0.525-1.367 0-1.884z"></path>
</symbol>
<symbol id="icon-chevron-left" viewBox="0 0 32 32">
<title>chevron-left</title>
<path d="M13.884 16l7.059-7.059c0.516-0.516 0.516-1.367 0-1.884s-1.367-0.516-1.884 0l-8 8c-0.516 0.516-0.516 1.367 0 1.884l8 8c0.259 0.259 0.6 0.392 0.941 0.392s0.684-0.133 0.941-0.392c0.516-0.516 0.516-1.367 0-1.884l-7.059-7.059z"></path>
</symbol>
<symbol id="icon-chevron-down" viewBox="0 0 32 32">
<title>chevron-down</title>
<path d="M24.941 11.059c-0.516-0.516-1.367-0.516-1.884 0l-7.059 7.059-7.059-7.059c-0.516-0.516-1.367-0.516-1.884 0s-0.516 1.367 0 1.884l8 8c0.259 0.259 0.6 0.392 0.941 0.392s0.684-0.133 0.941-0.392l8-8c0.525-0.516 0.525-1.367 0-1.884z"></path>
</symbol>
</defs>
</svg>
